<?xml version="1.0" encoding="UTF-8"?>
<svg id="Layer_1" xmlns="http://www.w3.org/2000/svg" version="1.1" viewBox="0 0 99 99">
  <!-- Generator: Adobe Illustrator 29.1.0, SVG Export Plug-In . SVG Version: 2.1.0 Build 142)  -->
  <defs>
    <style>
      .st0 {
        stroke-linecap: round;
        stroke-miterlimit: 1.33;
        stroke-width: 4px;
      }

      .st0, .st1 {
        fill: none;
        stroke: #000;
      }

      .st1 {
        stroke-miterlimit: 10;
        stroke-width: 4px;
      }
    </style>
  </defs>
  <rect id="frame" class="st0" x="3.86" y="3.36" width="91.28" height="92.29" rx="3.87" ry="3.87"/>
  <path id="INSTAGRAM" class="st1" d="M85.47,31.7c-.42-4.33-1.23-7.1-2.61-9.31-1.59-2.53-3.72-4.66-6.25-6.25-2.21-1.39-4.98-2.2-9.31-2.61-4.38-.42-10-.43-17.8-.43s-13.42,0-17.8.43c-4.33.42-7.1,1.23-9.31,2.61-2.53,1.59-4.66,3.72-6.25,6.25-1.39,2.21-2.2,4.98-2.61,9.31-.42,4.38-.43,10-.43,17.8s0,13.42.43,17.8c.42,4.33,1.23,7.1,2.61,9.31,1.59,2.53,3.72,4.66,6.25,6.25,2.21,1.39,4.98,2.2,9.31,2.61,4.38.42,10,.43,17.8.43h0c7.8,0,13.42,0,17.8-.43,4.33-.42,7.1-1.23,9.31-2.61,2.53-1.59,4.66-3.72,6.25-6.25,1.39-2.21,2.2-4.98,2.61-9.31.42-4.38.43-10,.43-17.8s0-13.42-.43-17.8ZM49.5,66.05c-9.14,0-16.55-7.41-16.55-16.55s7.41-16.55,16.55-16.55,16.55,7.41,16.55,16.55-7.41,16.55-16.55,16.55ZM71.01,32.95c-2.74,0-4.96-2.22-4.96-4.96s2.22-4.96,4.96-4.96,4.96,2.22,4.96,4.96-2.22,4.96-4.96,4.96Z"/>
</svg>