<svg width="26" height="31" viewBox="0 0 26 31" fill="none" xmlns="http://www.w3.org/2000/svg">
<g clip-path="url(#clip0_16_1445)">
<path d="M17.6922 0.499023H7.02319C6.23049 0.499023 5.58789 1.14163 5.58789 1.93432V18.4212C5.58789 19.2139 6.23049 19.8565 7.02319 19.8565H17.6922C18.4849 19.8565 19.1275 19.2139 19.1275 18.4212V1.93432C19.1275 1.14163 18.4849 0.499023 17.6922 0.499023Z" stroke="white" stroke-width="1.32" stroke-linecap="round" stroke-linejoin="round"/>
<path d="M15.1034 14.8101C15.4613 13.2937 14.5222 11.7742 13.0057 11.4163C11.4893 11.0584 9.96983 11.9976 9.61192 13.514C9.25401 15.0305 10.1932 16.5499 11.7096 16.9078C13.226 17.2657 14.7455 16.3266 15.1034 14.8101Z" stroke="white" stroke-width="1.32" stroke-linecap="round" stroke-linejoin="round"/>
<path d="M14.3533 12.167L10.3633 16.1562" stroke="white" stroke-width="1.32" stroke-linecap="round" stroke-linejoin="round"/>
<path d="M12.3581 19.8567V21.5646C12.3581 22.1256 11.9029 22.5808 11.3418 22.5808H3.25054C2.32602 22.5808 1.57617 21.831 1.57617 20.9065V9.69141" stroke="white" stroke-width="1.32" stroke-linecap="round" stroke-linejoin="round"/>
<path d="M2.65417 4.52734H0.499023V9.69158H2.65417V4.52734Z" stroke="white" stroke-width="1.32" stroke-linecap="round" stroke-linejoin="round"/>
<path d="M1.57715 4.52726V2.0166" stroke="white" stroke-width="1.32" stroke-linecap="round" stroke-linejoin="round"/>
<path d="M22.7471 29.5907V27.4355H17.5828V29.5907H22.7471Z" stroke="white" stroke-width="1.32" stroke-linecap="round" stroke-linejoin="round"/>
<path d="M22.7471 28.5127H25.2577" stroke="white" stroke-width="1.32" stroke-linecap="round" stroke-linejoin="round"/>
<path d="M15.957 19.8564V24.4905C15.957 25.0516 15.5018 25.5068 14.9408 25.5068H6.1755C5.35773 25.5068 4.69434 26.1701 4.69434 26.9879V27.0311C4.69434 27.8489 5.35773 28.5123 6.1755 28.5123H17.5838" stroke="white" stroke-width="1.32" stroke-linecap="round" stroke-linejoin="round"/>
<path d="M16.3355 2.9707H8.19043V7.43273H16.3355V2.9707Z" stroke="white" stroke-width="1.32" stroke-linecap="round" stroke-linejoin="round"/>
</g>
<defs>
<clipPath id="clip0_16_1445">
<rect width="25.7577" height="30.09" fill="white"/>
</clipPath>
</defs>
</svg>
