<svg width="32" height="30" viewBox="0 0 32 30" fill="none" xmlns="http://www.w3.org/2000/svg">
<g clip-path="url(#clip0_16_1473)">
<path d="M23.7423 20.1104C22.0769 22.6431 19.21 24.3141 15.9534 24.3141C12.6968 24.3141 10.0317 22.7577 8.34473 20.3741" stroke="white" stroke-linecap="round" stroke-linejoin="round"/>
<path d="M8.14551 9.91557C9.80805 7.36777 12.6835 5.68457 15.9522 5.68457C18.9722 5.68457 21.6571 7.12181 23.3591 9.35043" stroke="white" stroke-linecap="round" stroke-linejoin="round"/>
<path d="M26.5691 8.33423L27.3887 5.97325L26.1842 4.76882L24.9798 3.56439L22.6188 4.38393L18.7464 2.77958L17.6565 0.53125H14.2498L13.1599 2.77958L9.28746 4.38393L6.92742 3.56439L5.72299 4.76882L4.51855 5.97325L5.33715 8.33423" stroke="white" stroke-linecap="round" stroke-linejoin="round"/>
<path d="M5.33715 21.666L4.51855 24.027L5.72299 25.2305L6.92742 26.4349L9.28746 25.6163L13.1599 27.2207L14.2498 29.469H17.6565L18.7464 27.2207L22.6188 25.6163L24.9798 26.4349L26.1842 25.2305L27.3887 24.027L26.5691 21.666" stroke="white" stroke-linecap="round" stroke-linejoin="round"/>
<path d="M27.4267 16.8092H31.3742C30.7387 18.2305 29.3775 19.2537 27.7553 19.4095C27.6135 19.4236 27.4718 19.4321 27.3253 19.4321C26.4251 19.4321 25.5849 19.1626 24.8808 18.7008C24.433 18.4041 24.0397 18.0249 23.7289 17.5902C23.5506 17.348 23.4004 17.088 23.2765 16.8092H8.62803C8.50505 17.0833 8.35391 17.3433 8.18024 17.5855C7.37572 18.7055 6.06052 19.4311 4.57915 19.4311C4.4327 19.4311 4.29095 19.4217 4.1492 19.4086C2.52702 19.2528 1.16581 18.2295 0.530273 16.8082H4.47777V13.1893H0.531212C1.19398 11.7042 2.65563 10.6537 4.36981 10.5758C4.43834 10.5664 4.50687 10.5664 4.58009 10.5664C5.48036 10.5664 6.32055 10.8358 7.02463 11.2977C7.44519 11.5765 7.81037 11.9239 8.11171 12.321C8.3173 12.5857 8.49097 12.8786 8.62803 13.1893H23.2774C23.4145 12.8786 23.5881 12.5866 23.7984 12.3163C24.6076 11.2517 25.8862 10.5664 27.3263 10.5664C27.3995 10.5664 27.468 10.5664 27.5366 10.5758C29.2498 10.6537 30.7124 11.7042 31.3752 13.1893H27.4277V16.8082L27.4267 16.8092Z" stroke="white" stroke-linecap="round" stroke-linejoin="round"/>
</g>
<defs>
<clipPath id="clip0_16_1473">
<rect width="31.9057" height="30" fill="white"/>
</clipPath>
</defs>
</svg>
