<svg width="30" height="30" viewBox="0 0 30 30" fill="none" xmlns="http://www.w3.org/2000/svg">
<g clip-path="url(#clip0_16_1435)">
<path d="M23.8316 23.8319C28.7094 18.9542 28.7094 11.0458 23.8316 6.1681C18.9539 1.29038 11.0456 1.29038 6.16784 6.1681C1.29011 11.0458 1.29011 18.9542 6.16784 23.8319C11.0456 28.7096 18.9539 28.7096 23.8316 23.8319Z" stroke="white" stroke-width="1.32" stroke-linecap="round" stroke-linejoin="round"/>
<path d="M24.0998 6.95465L17.8576 10.0135L17.3389 3.08105" stroke="white" stroke-width="1.32" stroke-linecap="round" stroke-linejoin="round"/>
<path d="M26.4658 19.01L20.665 15.0002L26.4658 10.9912" stroke="white" stroke-width="1.32" stroke-linecap="round" stroke-linejoin="round"/>
<path d="M17.3389 26.9189L17.8576 19.9873L24.0998 23.0453" stroke="white" stroke-width="1.32" stroke-linecap="round" stroke-linejoin="round"/>
<path d="M5.90039 23.0453L12.1434 19.9873L12.6613 26.9189" stroke="white" stroke-width="1.32" stroke-linecap="round" stroke-linejoin="round"/>
<path d="M3.53516 10.9912L9.33505 15.0002L3.53516 19.01" stroke="white" stroke-width="1.32" stroke-linecap="round" stroke-linejoin="round"/>
<path d="M12.6613 3.08105L12.1434 10.0135L5.90039 6.95465" stroke="white" stroke-width="1.32" stroke-linecap="round" stroke-linejoin="round"/>
<path d="M17.2757 15.5456C17.5761 14.2892 16.8012 13.027 15.5448 12.7266C14.2883 12.4261 13.0262 13.201 12.7257 14.4575C12.4252 15.7139 13.2002 16.976 14.4566 17.2765C15.713 17.577 16.9752 16.802 17.2757 15.5456Z" fill="white"/>
<path d="M25.2693 25.2701C30.9413 19.5981 30.9413 10.4019 25.2693 4.72991C19.5972 -0.942104 10.4011 -0.942102 4.72907 4.72991C-0.942941 10.4019 -0.942941 19.5981 4.72907 25.2701C10.4011 30.9421 19.5972 30.9421 25.2693 25.2701Z" stroke="white" stroke-width="1.32" stroke-linecap="round" stroke-linejoin="round"/>
</g>
<defs>
<clipPath id="clip0_16_1435">
<rect width="30" height="30" fill="white"/>
</clipPath>
</defs>
</svg>
