<?xml version="1.0" encoding="utf-8"?>
<!-- Generator: Adobe Illustrator 20.0.0, SVG Export Plug-In . SVG Version: 6.00 Build 0)  -->
<svg version="1.1" id="Layer_1" xmlns="http://www.w3.org/2000/svg" xmlns:xlink="http://www.w3.org/1999/xlink" x="0px" y="0px"
	 viewBox="0 0 128 128" style="enable-background:new 0 0 128 128;" xml:space="preserve">
<style type="text/css">
	.st0{fill:#404041;}
</style>
<title>Asset 24</title>
<g>
	<path class="st0" d="M29.6,73.1c-0.1,0.7-0.7,1.2-1.4,1.1c-0.7-0.1-1.2-0.7-1.1-1.4h-2.9c0,2.3,1.9,4.2,4.2,4.2
		c2.3,0,4.2-1.9,4.2-4.2h-2.9C29.6,73,29.6,73.1,29.6,73.1z"/>
	<path class="st0" d="M105.7,73.2c-0.1,0.7-0.7,1.2-1.4,1.1s-1.2-0.7-1.1-1.4h-2.9c0,2.3,1.9,4.2,4.2,4.2c2.3,0,4.2-1.9,4.2-4.2
		h-2.9C105.7,73,105.7,73.1,105.7,73.2z"/>
	<path class="st0" d="M128,68.4l-2.9-5.8h-2.9v-2.9l-11.6-5.8H90.2l-11.6,2.9H49.4l-11.6-2.9V48h23.3l14.5,2.9l2.9,2.9l8.7-2.9
		l-26.2-5.8H37.8l-20.4,5.8h8.7L5.8,53.8l-2.9,2.9v2.9h2.9l-2.9,2.9L0,68.4l5.8,5.8l10.1,2.1c-0.7-2.5-0.6-5.1,0.2-7.5
		c2.3-6.7,9.6-10.3,16.4-8c6.7,2.3,10.3,9.6,8,16.4h51.7c-0.9-2.7-0.9-5.6,0-8.3c2.3-6.7,9.6-10.3,16.4-8c6.7,2.3,10.3,9.6,8,16.4
		H128v-2.9h-2.9l2.9-2.9V68.4z M125.1,70.1l-4.1,4.1h-0.7c0-0.4,0-0.8,0-1.3c-0.2-8.4-7-15.2-15.4-15.4c-8.7-0.2-16,6.7-16.2,15.4
		c0,0.4,0,0.8,0,1.3H44.1c0-0.4,0-0.8,0-1.3c-0.1-8.4-6.8-15.3-15.3-15.6c-8.7-0.3-16,6.6-16.3,15.3l-5.3-1.1l-3.7-3.7l1.8-3.5
		l7.5-7.5H7l0.2-0.2l22.1-3.2l-0.2-2.8l5.8-1.7v7.1l14.2,3.5h29.8l11.6-2.9h19.4l9.4,4.7v4h4l1.8,3.6V70.1z"/>
	<path class="st0" d="M114.3,73c0.1-5.5-4.4-10-9.9-10.1l0,0c-2.6,0-5.1,1.1-7,2.9c-3.9,3.9-3.9,10.2,0,14.1h-62c0,0,0,0,0.1-0.1
		c3.9-3.9,3.9-10.3-0.1-14.1c-3.9-3.9-10.3-3.9-14.1,0.1c-3.9,3.9-3.9,10.3,0.1,14.1H2.9v2.9h119.2V80h-10.7
		C113.3,78.1,114.3,75.6,114.3,73z M28.3,80c-3.9,0-7.1-3.2-7.1-7.1s3.2-7.1,7.1-7.1s7.1,3.2,7.1,7.1S32.2,80,28.3,80z M104.4,80
		c-3.9,0-7.1-3.2-7.1-7.1s3.2-7.1,7.1-7.1s7.1,3.2,7.1,7.1S108.3,80,104.4,80z"/>
</g>
</svg>
