<?xml version="1.0" encoding="UTF-8"?>
<svg id="Glyph" xmlns="http://www.w3.org/2000/svg" version="1.1" viewBox="0 0 64 64">
  <circle cx="16" cy="16" r="3" fill="#000" stroke-width="0"/>
  <circle cx="48" cy="43" r="3" fill="#000" stroke-width="0"/>
  <path d="M48,34c-4.96002,0-9,4.03998-9,9,0,3.42999,1.96002,6.57001,5.03003,8.07001l2.24365,3.92999H14.5c-3.03271,0-5.5-2.46777-5.5-5.5s2.46729-5.5,5.5-5.5h15c4.13574,0,7.5-3.36426,7.5-7.5v-1c0-4.13574-3.36426-7.5-7.5-7.5h-11.77368l2.24365-3.92999c3.07001-1.5,5.03003-4.64001,5.03003-8.07001,0-4.96002-4.03998-9-9-9s-9,4.03998-9,9c0,3.42999,1.96002,6.57001,5.03003,8.07001,0,0,3.09998,5.42999,3.1,5.43003.17363.29899.52369.49997.86997.49997h13.5c3.03271,0,5.5,2.46777,5.5,5.5v1c0,3.03223-2.46729,5.5-5.5,5.5h-15c-4.13574,0-7.5,3.36426-7.5,7.5s3.36426,7.5,7.5,7.5c0,0,33.5,0,33.50002,0,.34332-.00001.69933-.20138.86997-.5l3.09998-5.42999c3.07001-1.5,5.03003-4.64001,5.03003-8.07001,0-4.96002-4.03998-9-9-9ZM11,16c0-2.76001,2.23999-5,5-5s5,2.23999,5,5-2.23999,5-5,5-5-2.23999-5-5ZM48,48c-2.76001,0-5-2.23999-5-5s2.23999-5,5-5,5,2.23999,5,5-2.23999,5-5,5Z" fill="#000" stroke-width="0"/>
  <path d="M26,24h3.58594l-.29297.29297c-.39061.39061-.39062,1.02337-.00006,1.414.37359.37365,1.02567.38851,1.41412.00006l2-2c.39062-.39062.39062-1.02344,0-1.41406l-2-2c-.39062-.39062-1.02344-.39062-1.41406,0s-.39062,1.02344,0,1.41406l.29297.29297h-3.58594c-.55225,0-1,.44727-1,1s.44775,1,1,1Z" fill="#000" stroke-width="0"/>
  <path d="M29.29297,52.70703c.38982.38981,1.0275.38656,1.41406,0l2-2c.39062-.39062.39062-1.02344,0-1.41406l-2-2c-.39062-.39062-1.02344-.39062-1.41406,0s-.39062,1.02344,0,1.41406l.29297.29297h-3.58594c-.55225,0-1,.44727-1,1s.44775,1,1,1h3.58594l-.29297.29297c-.39056.39056-.39062,1.02321,0,1.41406Z" fill="#000" stroke-width="0"/>
  <path d="M17.70703,33.29297c-.39062-.39062-1.02344-.39062-1.41406,0l-2,2c-.39062.39062-.39062,1.02344,0,1.41406l1.99994,1.99994c.38153.38153,1.03554.37864,1.41412.00006.39062-.39062.39062-1.02344,0-1.41406l-.29297-.29297h3.58594c.55225,0,1-.44727,1-1s-.44775-1-1-1h-3.58594l.29297-.29297c.39062-.39062.39062-1.02344,0-1.41406Z" fill="#000" stroke-width="0"/>
</svg>